<mxfile host="app.diagrams.net" modified="2022-05-30T10:35:03.951Z" agent="5.0 (X11; Linux x86_64) AppleWebKit/537.36 (KHTML, like Gecko) Chrome/92.0.4515.159 Safari/537.36" etag="ZeaNU8oy66hrR0v0OR57" version="18.1.3" type="github" pages="2">
  <diagram id="nWmFi10vYCMnMqG8ToXp" name="Basic game">
    <mxGraphModel dx="1133" dy="597" grid="1" gridSize="10" guides="1" tooltips="1" connect="1" arrows="1" fold="1" page="1" pageScale="1" pageWidth="850" pageHeight="1100" math="0" shadow="0">
      <root>
        <mxCell id="0" />
        <mxCell id="1" parent="0" />
        <mxCell id="AeF_nCRO_zZ-h2e8QQf--4" style="edgeStyle=orthogonalEdgeStyle;rounded=0;orthogonalLoop=1;jettySize=auto;html=1;exitX=0.5;exitY=1;exitDx=0;exitDy=0;exitPerimeter=0;" parent="1" source="AeF_nCRO_zZ-h2e8QQf--1" edge="1">
          <mxGeometry relative="1" as="geometry">
            <mxPoint x="210" y="150" as="targetPoint" />
          </mxGeometry>
        </mxCell>
        <mxCell id="AeF_nCRO_zZ-h2e8QQf--1" value="Start game" style="strokeWidth=2;html=1;shape=mxgraph.flowchart.start_1;whiteSpace=wrap;" parent="1" vertex="1">
          <mxGeometry x="160" y="50" width="100" height="60" as="geometry" />
        </mxCell>
        <mxCell id="AeF_nCRO_zZ-h2e8QQf--8" style="edgeStyle=orthogonalEdgeStyle;rounded=0;orthogonalLoop=1;jettySize=auto;html=1;exitX=0.5;exitY=1;exitDx=0;exitDy=0;" parent="1" source="AeF_nCRO_zZ-h2e8QQf--7" edge="1">
          <mxGeometry relative="1" as="geometry">
            <mxPoint x="210" y="240" as="targetPoint" />
          </mxGeometry>
        </mxCell>
        <mxCell id="AeF_nCRO_zZ-h2e8QQf--7" value="Generate invite link" style="rounded=0;whiteSpace=wrap;html=1;" parent="1" vertex="1">
          <mxGeometry x="155" y="150" width="110" height="40" as="geometry" />
        </mxCell>
        <mxCell id="AeF_nCRO_zZ-h2e8QQf--11" style="edgeStyle=orthogonalEdgeStyle;rounded=0;orthogonalLoop=1;jettySize=auto;html=1;exitX=0.5;exitY=1;exitDx=0;exitDy=0;" parent="1" source="AeF_nCRO_zZ-h2e8QQf--9" target="AeF_nCRO_zZ-h2e8QQf--10" edge="1">
          <mxGeometry relative="1" as="geometry" />
        </mxCell>
        <mxCell id="AeF_nCRO_zZ-h2e8QQf--9" value="Wait for other player" style="rounded=0;whiteSpace=wrap;html=1;" parent="1" vertex="1">
          <mxGeometry x="150" y="240" width="120" height="40" as="geometry" />
        </mxCell>
        <mxCell id="AeF_nCRO_zZ-h2e8QQf--14" value="" style="edgeStyle=orthogonalEdgeStyle;rounded=0;orthogonalLoop=1;jettySize=auto;html=1;" parent="1" source="AeF_nCRO_zZ-h2e8QQf--10" target="AeF_nCRO_zZ-h2e8QQf--13" edge="1">
          <mxGeometry relative="1" as="geometry" />
        </mxCell>
        <mxCell id="AeF_nCRO_zZ-h2e8QQf--10" value="Let players make their setup" style="rounded=0;whiteSpace=wrap;html=1;" parent="1" vertex="1">
          <mxGeometry x="150" y="330" width="120" height="60" as="geometry" />
        </mxCell>
        <mxCell id="AeF_nCRO_zZ-h2e8QQf--16" value="" style="edgeStyle=orthogonalEdgeStyle;rounded=0;orthogonalLoop=1;jettySize=auto;html=1;" parent="1" source="AeF_nCRO_zZ-h2e8QQf--13" target="AeF_nCRO_zZ-h2e8QQf--15" edge="1">
          <mxGeometry relative="1" as="geometry" />
        </mxCell>
        <mxCell id="AeF_nCRO_zZ-h2e8QQf--13" value="Wait for ready" style="whiteSpace=wrap;html=1;rounded=0;" parent="1" vertex="1">
          <mxGeometry x="150" y="430" width="120" height="60" as="geometry" />
        </mxCell>
        <mxCell id="AeF_nCRO_zZ-h2e8QQf--18" value="" style="edgeStyle=orthogonalEdgeStyle;rounded=0;orthogonalLoop=1;jettySize=auto;html=1;" parent="1" source="AeF_nCRO_zZ-h2e8QQf--15" target="AeF_nCRO_zZ-h2e8QQf--17" edge="1">
          <mxGeometry relative="1" as="geometry" />
        </mxCell>
        <mxCell id="AeF_nCRO_zZ-h2e8QQf--15" value="Start the game" style="whiteSpace=wrap;html=1;rounded=0;" parent="1" vertex="1">
          <mxGeometry x="150" y="540" width="120" height="60" as="geometry" />
        </mxCell>
        <mxCell id="AeF_nCRO_zZ-h2e8QQf--55" style="edgeStyle=orthogonalEdgeStyle;rounded=0;orthogonalLoop=1;jettySize=auto;html=1;" parent="1" source="AeF_nCRO_zZ-h2e8QQf--17" target="AeF_nCRO_zZ-h2e8QQf--52" edge="1">
          <mxGeometry relative="1" as="geometry" />
        </mxCell>
        <mxCell id="AeF_nCRO_zZ-h2e8QQf--17" value="red starts" style="whiteSpace=wrap;html=1;rounded=0;" parent="1" vertex="1">
          <mxGeometry x="150" y="650" width="120" height="60" as="geometry" />
        </mxCell>
        <mxCell id="AeF_nCRO_zZ-h2e8QQf--24" value="" style="edgeStyle=orthogonalEdgeStyle;rounded=0;orthogonalLoop=1;jettySize=auto;html=1;" parent="1" source="AeF_nCRO_zZ-h2e8QQf--19" target="AeF_nCRO_zZ-h2e8QQf--23" edge="1">
          <mxGeometry relative="1" as="geometry" />
        </mxCell>
        <mxCell id="AeF_nCRO_zZ-h2e8QQf--19" value="Server checks if the move is valid" style="whiteSpace=wrap;html=1;rounded=0;" parent="1" vertex="1">
          <mxGeometry x="350" y="650" width="120" height="60" as="geometry" />
        </mxCell>
        <mxCell id="AeF_nCRO_zZ-h2e8QQf--32" value="" style="edgeStyle=orthogonalEdgeStyle;rounded=0;orthogonalLoop=1;jettySize=auto;html=1;" parent="1" source="AeF_nCRO_zZ-h2e8QQf--23" target="AeF_nCRO_zZ-h2e8QQf--31" edge="1">
          <mxGeometry relative="1" as="geometry" />
        </mxCell>
        <mxCell id="AeF_nCRO_zZ-h2e8QQf--43" value="" style="edgeStyle=orthogonalEdgeStyle;rounded=0;orthogonalLoop=1;jettySize=auto;html=1;" parent="1" source="AeF_nCRO_zZ-h2e8QQf--23" target="AeF_nCRO_zZ-h2e8QQf--42" edge="1">
          <mxGeometry relative="1" as="geometry" />
        </mxCell>
        <mxCell id="AeF_nCRO_zZ-h2e8QQf--23" value="if move is valid" style="rhombus;whiteSpace=wrap;html=1;rounded=0;" parent="1" vertex="1">
          <mxGeometry x="570" y="640" width="80" height="80" as="geometry" />
        </mxCell>
        <mxCell id="AeF_nCRO_zZ-h2e8QQf--27" value="yes" style="text;html=1;align=center;verticalAlign=middle;resizable=0;points=[];autosize=1;strokeColor=none;fillColor=none;" parent="1" vertex="1">
          <mxGeometry x="570" y="750" width="30" height="20" as="geometry" />
        </mxCell>
        <mxCell id="AeF_nCRO_zZ-h2e8QQf--34" value="" style="edgeStyle=orthogonalEdgeStyle;rounded=0;orthogonalLoop=1;jettySize=auto;html=1;" parent="1" source="AeF_nCRO_zZ-h2e8QQf--31" target="AeF_nCRO_zZ-h2e8QQf--33" edge="1">
          <mxGeometry relative="1" as="geometry" />
        </mxCell>
        <mxCell id="AeF_nCRO_zZ-h2e8QQf--41" value="" style="edgeStyle=orthogonalEdgeStyle;rounded=0;orthogonalLoop=1;jettySize=auto;html=1;" parent="1" source="AeF_nCRO_zZ-h2e8QQf--31" target="AeF_nCRO_zZ-h2e8QQf--40" edge="1">
          <mxGeometry relative="1" as="geometry" />
        </mxCell>
        <mxCell id="AeF_nCRO_zZ-h2e8QQf--31" value="does move hit a pawn?" style="rhombus;whiteSpace=wrap;html=1;rounded=0;" parent="1" vertex="1">
          <mxGeometry x="550" y="780" width="120" height="120" as="geometry" />
        </mxCell>
        <mxCell id="AeF_nCRO_zZ-h2e8QQf--49" style="edgeStyle=orthogonalEdgeStyle;rounded=0;orthogonalLoop=1;jettySize=auto;html=1;entryX=1;entryY=0.5;entryDx=0;entryDy=0;" parent="1" source="AeF_nCRO_zZ-h2e8QQf--33" target="AeF_nCRO_zZ-h2e8QQf--47" edge="1">
          <mxGeometry relative="1" as="geometry" />
        </mxCell>
        <mxCell id="AeF_nCRO_zZ-h2e8QQf--33" value="show the move for both players" style="whiteSpace=wrap;html=1;rounded=0;" parent="1" vertex="1">
          <mxGeometry x="350" y="810" width="120" height="60" as="geometry" />
        </mxCell>
        <mxCell id="AeF_nCRO_zZ-h2e8QQf--35" value="no" style="text;html=1;align=center;verticalAlign=middle;resizable=0;points=[];autosize=1;strokeColor=none;fillColor=none;" parent="1" vertex="1">
          <mxGeometry x="500" y="820" width="30" height="20" as="geometry" />
        </mxCell>
        <mxCell id="AeF_nCRO_zZ-h2e8QQf--38" value="yes" style="text;html=1;align=center;verticalAlign=middle;resizable=0;points=[];autosize=1;strokeColor=none;fillColor=none;" parent="1" vertex="1">
          <mxGeometry x="585" y="930" width="30" height="20" as="geometry" />
        </mxCell>
        <mxCell id="AeF_nCRO_zZ-h2e8QQf--46" value="" style="edgeStyle=orthogonalEdgeStyle;rounded=0;orthogonalLoop=1;jettySize=auto;html=1;" parent="1" source="AeF_nCRO_zZ-h2e8QQf--40" target="AeF_nCRO_zZ-h2e8QQf--45" edge="1">
          <mxGeometry relative="1" as="geometry" />
        </mxCell>
        <mxCell id="AeF_nCRO_zZ-h2e8QQf--40" value="check who wins" style="whiteSpace=wrap;html=1;rounded=0;" parent="1" vertex="1">
          <mxGeometry x="550" y="980" width="120" height="60" as="geometry" />
        </mxCell>
        <mxCell id="AeF_nCRO_zZ-h2e8QQf--56" style="edgeStyle=orthogonalEdgeStyle;rounded=0;orthogonalLoop=1;jettySize=auto;html=1;entryX=0.5;entryY=0;entryDx=0;entryDy=0;" parent="1" source="AeF_nCRO_zZ-h2e8QQf--42" target="AeF_nCRO_zZ-h2e8QQf--19" edge="1">
          <mxGeometry relative="1" as="geometry" />
        </mxCell>
        <mxCell id="AeF_nCRO_zZ-h2e8QQf--42" value="show error for player who moved&lt;br&gt;&amp;amp; let them make a new move" style="whiteSpace=wrap;html=1;rounded=0;" parent="1" vertex="1">
          <mxGeometry x="550" y="490" width="120" height="60" as="geometry" />
        </mxCell>
        <mxCell id="AeF_nCRO_zZ-h2e8QQf--48" value="" style="edgeStyle=orthogonalEdgeStyle;rounded=0;orthogonalLoop=1;jettySize=auto;html=1;" parent="1" source="AeF_nCRO_zZ-h2e8QQf--45" target="AeF_nCRO_zZ-h2e8QQf--47" edge="1">
          <mxGeometry relative="1" as="geometry" />
        </mxCell>
        <mxCell id="AeF_nCRO_zZ-h2e8QQf--45" value="winner takes the pawn and moves own pawn" style="whiteSpace=wrap;html=1;rounded=0;" parent="1" vertex="1">
          <mxGeometry x="350" y="980" width="120" height="60" as="geometry" />
        </mxCell>
        <mxCell id="AeF_nCRO_zZ-h2e8QQf--53" value="" style="edgeStyle=orthogonalEdgeStyle;rounded=0;orthogonalLoop=1;jettySize=auto;html=1;" parent="1" source="AeF_nCRO_zZ-h2e8QQf--47" target="AeF_nCRO_zZ-h2e8QQf--52" edge="1">
          <mxGeometry relative="1" as="geometry" />
        </mxCell>
        <mxCell id="AeF_nCRO_zZ-h2e8QQf--47" value="turn goes to other player" style="whiteSpace=wrap;html=1;rounded=0;" parent="1" vertex="1">
          <mxGeometry x="145" y="870" width="120" height="60" as="geometry" />
        </mxCell>
        <mxCell id="AeF_nCRO_zZ-h2e8QQf--54" style="edgeStyle=orthogonalEdgeStyle;rounded=0;orthogonalLoop=1;jettySize=auto;html=1;entryX=0.5;entryY=1;entryDx=0;entryDy=0;" parent="1" source="AeF_nCRO_zZ-h2e8QQf--52" target="AeF_nCRO_zZ-h2e8QQf--19" edge="1">
          <mxGeometry relative="1" as="geometry">
            <Array as="points">
              <mxPoint x="410" y="790" />
            </Array>
          </mxGeometry>
        </mxCell>
        <mxCell id="AeF_nCRO_zZ-h2e8QQf--52" value="player makes a move" style="whiteSpace=wrap;html=1;rounded=0;" parent="1" vertex="1">
          <mxGeometry x="145" y="760" width="120" height="60" as="geometry" />
        </mxCell>
      </root>
    </mxGraphModel>
  </diagram>
  <diagram id="07fea595-8f29-1299-0266-81d95cde20df" name="Page-1">
    <mxGraphModel dx="1133" dy="597" grid="1" gridSize="10" guides="1" tooltips="1" connect="1" arrows="1" fold="1" page="1" pageScale="1" pageWidth="1169" pageHeight="827" background="#ffffff" math="0" shadow="0">
      <root>
        <mxCell id="0" />
        <mxCell id="1" parent="0" />
        <mxCell id="4Mw94B3l1mMhVOg0pVwX-217" value="Client" style="swimlane;startSize=20;" parent="1" vertex="1">
          <mxGeometry x="200" y="80" width="160" height="520" as="geometry">
            <mxRectangle x="200" y="80" width="60" height="20" as="alternateBounds" />
          </mxGeometry>
        </mxCell>
        <mxCell id="4Mw94B3l1mMhVOg0pVwX-219" value="Start game" style="rounded=0;whiteSpace=wrap;html=1;" parent="4Mw94B3l1mMhVOg0pVwX-217" vertex="1">
          <mxGeometry x="20" y="50" width="120" height="60" as="geometry" />
        </mxCell>
        <mxCell id="4Mw94B3l1mMhVOg0pVwX-218" value="Server" style="swimlane;startSize=20;" parent="1" vertex="1">
          <mxGeometry x="360" y="80" width="160" height="520" as="geometry" />
        </mxCell>
        <mxCell id="4Mw94B3l1mMhVOg0pVwX-221" value="" style="rounded=0;whiteSpace=wrap;html=1;" parent="4Mw94B3l1mMhVOg0pVwX-218" vertex="1">
          <mxGeometry x="20" y="50" width="120" height="60" as="geometry" />
        </mxCell>
        <mxCell id="4Mw94B3l1mMhVOg0pVwX-220" style="edgeStyle=orthogonalEdgeStyle;rounded=0;orthogonalLoop=1;jettySize=auto;html=1;exitX=1;exitY=0.5;exitDx=0;exitDy=0;" parent="1" source="4Mw94B3l1mMhVOg0pVwX-219" edge="1">
          <mxGeometry relative="1" as="geometry">
            <mxPoint x="380" y="160" as="targetPoint" />
          </mxGeometry>
        </mxCell>
      </root>
    </mxGraphModel>
  </diagram>
</mxfile>
